<svg
  width="48px"
  height="48px"
  viewBox="0 0 1024 1024"
  xmlns="http://www.w3.org/2000/svg"
  aria-label="Google Play Store Icon"
  role="img"
>
  <path
    fill="#000000"
    d="M511.979 85.321c235.648 0 426.667 191.019 426.667 426.667s-191.019 426.667-426.667 426.667c-235.605 0-426.667-191.019-426.667-426.667s191.061-426.667 426.667-426.667zm0 65.28c-199.595 0-361.429 161.792-361.429 361.387 0 199.637 161.835 361.429 361.429 361.429 199.637 0 361.429-161.792 361.429-361.429 0-199.595-161.792-361.387-361.429-361.387zm107.742 140.646c70.784 0 128.384 57.643 128.384 128.469v184.619c0 70.784-57.6 128.427-128.384 128.427h-215.424c-70.827 0-128.384-57.643-128.384-128.427v-184.619c0-70.827 57.557-128.469 128.384-128.469h215.424zm0 44.544h-215.424c-46.293 0-83.883 37.632-83.883 83.925v184.619c0 46.293 37.589 83.925 83.883 83.925h215.424c46.251 0 83.883-37.632 83.883-83.925v-184.619c0-46.293-37.632-83.925-83.883-83.925zm-107.7 69.457c63.659 0 115.456 49.195 115.456 109.653 0 59.904-50.688 106.752-115.456 106.752-63.659 0-115.499-49.195-115.499-109.653 0-59.861 50.688-106.752 115.499-106.752zm0 39.637c-41.813 0-75.819 31.403-75.819 70.016 0 37.291 35.413 70.016 75.819 70.016s75.776-32.725 75.776-70.016c0-38.613-34.005-70.016-75.776-70.016zm118.836-46.396c23.296 0 43.008 19.712 43.008 43.008s-19.712 43.008-43.008 43.008c-23.296 0-43.008-19.712-43.008-43.008s19.712-43.008 43.008-43.008zm0 28.075c-8.661 0-15.019 6.272-15.019 14.933 0 8.704 6.357 14.976 15.019 14.976s14.976-6.272 14.976-14.976c0-8.661-6.315-14.933-14.976-14.933z"
  />
</svg>
